<mxfile host="app.diagrams.net" modified="2023-12-31T18:54:29.965Z" agent="Mozilla/5.0 (X11; Linux x86_64; rv:121.0) Gecko/20100101 Firefox/121.0" etag="OTGlOp1-PjzhPNa_clsR" version="22.1.16" type="github">
  <diagram id="prtHgNgQTEPvFCAcTncT" name="Page-1">
    <mxGraphModel dx="684" dy="325" grid="1" gridSize="10" guides="1" tooltips="1" connect="1" arrows="1" fold="1" page="1" pageScale="1" pageWidth="827" pageHeight="1169" math="0" shadow="0">
      <root>
        <mxCell id="0" />
        <mxCell id="1" parent="0" />
        <mxCell id="WvfnBEPjAD18mNaexyHV-40" value="EXTERNAL" style="ellipse;shape=cloud;whiteSpace=wrap;html=1;fontSize=14;shadow=0;sketch=1;curveFitting=1;jiggle=2;" parent="1" vertex="1">
          <mxGeometry x="260" y="370" width="120" height="100" as="geometry" />
        </mxCell>
        <mxCell id="WvfnBEPjAD18mNaexyHV-76" value="" style="edgeStyle=orthogonalEdgeStyle;rounded=0;orthogonalLoop=1;jettySize=auto;html=1;exitX=0.5;exitY=1;exitDx=0;exitDy=0;entryX=0.405;entryY=0.014;entryDx=0;entryDy=0;entryPerimeter=0;sketch=1;curveFitting=1;jiggle=2;" parent="1" source="WvfnBEPjAD18mNaexyHV-84" target="WvfnBEPjAD18mNaexyHV-89" edge="1">
          <mxGeometry relative="1" as="geometry">
            <mxPoint x="460" y="420" as="targetPoint" />
            <Array as="points" />
          </mxGeometry>
        </mxCell>
        <mxCell id="WvfnBEPjAD18mNaexyHV-77" value="NO" style="edgeLabel;html=1;align=center;verticalAlign=middle;resizable=0;points=[];fontSize=12;fontStyle=1" parent="WvfnBEPjAD18mNaexyHV-76" vertex="1" connectable="0">
          <mxGeometry x="-0.7191" y="-2" relative="1" as="geometry">
            <mxPoint x="2" y="10" as="offset" />
          </mxGeometry>
        </mxCell>
        <mxCell id="WvfnBEPjAD18mNaexyHV-78" value="Cache" style="swimlane;whiteSpace=wrap;html=1;fillColor=#ffe6cc;strokeColor=#d79b00;rounded=0;sketch=1;curveFitting=1;jiggle=2;" parent="1" vertex="1">
          <mxGeometry x="400" y="190" width="260" height="180" as="geometry" />
        </mxCell>
        <mxCell id="WvfnBEPjAD18mNaexyHV-79" value="CacheState" style="swimlane;fontStyle=1;childLayout=stackLayout;horizontal=1;startSize=30;horizontalStack=0;resizeParent=1;resizeParentMax=0;resizeLast=0;collapsible=1;marginBottom=0;whiteSpace=wrap;html=1;fillColor=#ffe6cc;strokeColor=#d79b00;rounded=0;swimlaneLine=1;glass=0;shadow=0;sketch=1;curveFitting=1;jiggle=2;" parent="WvfnBEPjAD18mNaexyHV-78" vertex="1">
          <mxGeometry x="150" y="40" width="90" height="120" as="geometry" />
        </mxCell>
        <mxCell id="WvfnBEPjAD18mNaexyHV-80" value="Map" style="text;strokeColor=none;fillColor=none;align=left;verticalAlign=middle;spacingLeft=4;spacingRight=4;overflow=hidden;points=[[0,0.5],[1,0.5]];portConstraint=eastwest;rotatable=0;whiteSpace=wrap;html=1;" parent="WvfnBEPjAD18mNaexyHV-79" vertex="1">
          <mxGeometry y="30" width="90" height="30" as="geometry" />
        </mxCell>
        <mxCell id="WvfnBEPjAD18mNaexyHV-81" value="Keys" style="text;strokeColor=none;fillColor=none;align=left;verticalAlign=middle;spacingLeft=4;spacingRight=4;overflow=hidden;points=[[0,0.5],[1,0.5]];portConstraint=eastwest;rotatable=0;whiteSpace=wrap;html=1;" parent="WvfnBEPjAD18mNaexyHV-79" vertex="1">
          <mxGeometry y="60" width="90" height="30" as="geometry" />
        </mxCell>
        <mxCell id="WvfnBEPjAD18mNaexyHV-82" value="Accesses" style="text;strokeColor=none;fillColor=none;align=left;verticalAlign=middle;spacingLeft=4;spacingRight=4;overflow=hidden;points=[[0,0.5],[1,0.5]];portConstraint=eastwest;rotatable=0;whiteSpace=wrap;html=1;" parent="WvfnBEPjAD18mNaexyHV-79" vertex="1">
          <mxGeometry y="90" width="90" height="30" as="geometry" />
        </mxCell>
        <mxCell id="WvfnBEPjAD18mNaexyHV-83" value="YES" style="edgeStyle=orthogonalEdgeStyle;rounded=0;orthogonalLoop=1;jettySize=auto;html=1;fontSize=12;fontStyle=1;sketch=1;curveFitting=1;jiggle=2;" parent="WvfnBEPjAD18mNaexyHV-78" source="WvfnBEPjAD18mNaexyHV-84" edge="1">
          <mxGeometry x="-0.208" relative="1" as="geometry">
            <mxPoint x="150" y="80" as="targetPoint" />
            <mxPoint as="offset" />
          </mxGeometry>
        </mxCell>
        <mxCell id="WvfnBEPjAD18mNaexyHV-84" value="EXISTS" style="rhombus;whiteSpace=wrap;html=1;fontSize=14;fillColor=#e1d5e7;strokeColor=#9673a6;sketch=1;curveFitting=1;jiggle=2;" parent="WvfnBEPjAD18mNaexyHV-78" vertex="1">
          <mxGeometry x="20" y="40" width="80" height="80" as="geometry" />
        </mxCell>
        <mxCell id="WvfnBEPjAD18mNaexyHV-85" value="" style="edgeStyle=orthogonalEdgeStyle;rounded=0;orthogonalLoop=1;jettySize=auto;html=1;entryX=0.5;entryY=1;entryDx=0;entryDy=0;exitX=1;exitY=0.5;exitDx=0;exitDy=0;sketch=1;curveFitting=1;jiggle=2;" parent="1" source="WvfnBEPjAD18mNaexyHV-89" target="WvfnBEPjAD18mNaexyHV-79" edge="1">
          <mxGeometry relative="1" as="geometry">
            <mxPoint x="520" y="250" as="sourcePoint" />
            <mxPoint x="740" y="250" as="targetPoint" />
            <Array as="points">
              <mxPoint x="595" y="420" />
            </Array>
          </mxGeometry>
        </mxCell>
        <mxCell id="WvfnBEPjAD18mNaexyHV-86" value="PROMISE" style="edgeLabel;html=1;align=center;verticalAlign=middle;resizable=0;points=[];fontSize=12;fontStyle=1" parent="WvfnBEPjAD18mNaexyHV-85" vertex="1" connectable="0">
          <mxGeometry x="-0.2934" relative="1" as="geometry">
            <mxPoint x="-11" as="offset" />
          </mxGeometry>
        </mxCell>
        <mxCell id="WvfnBEPjAD18mNaexyHV-87" style="edgeStyle=orthogonalEdgeStyle;rounded=0;orthogonalLoop=1;jettySize=auto;html=1;entryX=0;entryY=0.5;entryDx=0;entryDy=0;sketch=1;curveFitting=1;jiggle=2;startArrow=oval;startFill=1;" parent="1" target="WvfnBEPjAD18mNaexyHV-84" edge="1">
          <mxGeometry relative="1" as="geometry">
            <mxPoint x="260" y="270" as="sourcePoint" />
            <Array as="points">
              <mxPoint x="250" y="270" />
            </Array>
            <mxPoint x="380" y="240" as="targetPoint" />
          </mxGeometry>
        </mxCell>
        <mxCell id="WvfnBEPjAD18mNaexyHV-88" value="GET" style="edgeLabel;html=1;align=center;verticalAlign=middle;resizable=0;points=[];fontSize=24;fontStyle=0;fontFamily=Helvetica;" parent="WvfnBEPjAD18mNaexyHV-87" vertex="1" connectable="0">
          <mxGeometry x="0.4667" relative="1" as="geometry">
            <mxPoint x="-39" as="offset" />
          </mxGeometry>
        </mxCell>
        <mxCell id="WvfnBEPjAD18mNaexyHV-152" style="edgeStyle=orthogonalEdgeStyle;rounded=0;orthogonalLoop=1;jettySize=auto;html=1;startArrow=classic;startFill=1;endArrow=none;endFill=0;entryX=0.917;entryY=0.5;entryDx=0;entryDy=0;entryPerimeter=0;" parent="1" source="WvfnBEPjAD18mNaexyHV-89" target="WvfnBEPjAD18mNaexyHV-40" edge="1">
          <mxGeometry relative="1" as="geometry" />
        </mxCell>
        <mxCell id="WvfnBEPjAD18mNaexyHV-89" value="Lookup" style="swimlane;whiteSpace=wrap;html=1;fillColor=#ffe6cc;strokeColor=#d79b00;rounded=0;sketch=1;curveFitting=1;jiggle=2;" parent="1" vertex="1">
          <mxGeometry x="420" y="400" width="100" height="40" as="geometry" />
        </mxCell>
        <mxCell id="KwHkxTo8jftKuWM-ijs6-1" style="edgeStyle=orthogonalEdgeStyle;rounded=0;orthogonalLoop=1;jettySize=auto;html=1;sketch=1;curveFitting=1;jiggle=2;" parent="1" edge="1">
          <mxGeometry relative="1" as="geometry">
            <mxPoint x="640" y="269" as="sourcePoint" />
            <Array as="points">
              <mxPoint x="706" y="269" />
              <mxPoint x="706" y="270" />
            </Array>
            <mxPoint x="780" y="270" as="targetPoint" />
          </mxGeometry>
        </mxCell>
        <mxCell id="KwHkxTo8jftKuWM-ijs6-2" value="VALUE" style="edgeLabel;html=1;align=center;verticalAlign=middle;resizable=0;points=[];fontSize=24;fontStyle=0" parent="KwHkxTo8jftKuWM-ijs6-1" vertex="1" connectable="0">
          <mxGeometry x="0.4667" relative="1" as="geometry">
            <mxPoint x="-32" as="offset" />
          </mxGeometry>
        </mxCell>
      </root>
    </mxGraphModel>
  </diagram>
</mxfile>
